<svg width="32" height="32" viewBox="0 0 32 32" fill="none" xmlns="http://www.w3.org/2000/svg">
<path fill-rule="evenodd" clip-rule="evenodd" d="M16.0039 27.6445C14.332 27.6445 12.7656 27.3281 11.3047 26.6953C9.84375 26.0703 8.55859 25.2031 7.44922 24.0938C6.33984 22.9844 5.46875 21.6992 4.83594 20.2383C4.21094 18.7773 3.89844 17.2109 3.89844 15.5391C3.89844 13.8672 4.21094 12.3008 4.83594 10.8398C5.46875 9.37109 6.33984 8.08594 7.44922 6.98438C8.55859 5.875 9.84375 5.00781 11.3047 4.38281C12.7656 3.75 14.332 3.43359 16.0039 3.43359C17.6758 3.43359 19.2422 3.75 20.7031 4.38281C22.1719 5.00781 23.4609 5.875 24.5703 6.98438C25.6797 8.08594 26.5469 9.37109 27.1719 10.8398C27.8047 12.3008 28.1211 13.8672 28.1211 15.5391C28.1211 17.2109 27.8047 18.7773 27.1719 20.2383C26.5469 21.6992 25.6797 22.9844 24.5703 24.0938C23.4609 25.2031 22.1719 26.0703 20.7031 26.6953C19.2422 27.3281 17.6758 27.6445 16.0039 27.6445ZM22.1328 15.5273C22.1328 15.3789 22.1016 15.2383 22.0391 15.1055C21.9844 14.9648 21.8867 14.8203 21.7461 14.6719L17.9141 10.6992C17.8203 10.5977 17.7148 10.5195 17.5977 10.4648C17.4805 10.4102 17.3477 10.3828 17.1992 10.3828C16.918 10.3828 16.6875 10.4844 16.5078 10.6875C16.3281 10.8828 16.2383 11.1172 16.2383 11.3906C16.2383 11.6953 16.3477 11.9453 16.5664 12.1406L18.3711 13.8398L19.168 14.4961L17.375 14.3906H10.9414C10.6367 14.3906 10.375 14.5039 10.1563 14.7305C9.94531 14.9492 9.83984 15.2148 9.83984 15.5273C9.83984 15.8398 9.94531 16.1055 10.1563 16.3242C10.375 16.543 10.6367 16.6523 10.9414 16.6523H17.375L19.1797 16.5586L18.3711 17.2148L16.5664 18.9141C16.3477 19.1094 16.2383 19.3633 16.2383 19.6758C16.2383 19.9492 16.3281 20.1836 16.5078 20.3789C16.6875 20.5664 16.918 20.6602 17.1992 20.6602C17.3477 20.6602 17.4805 20.6367 17.5977 20.5898C17.7148 20.5352 17.8203 20.457 17.9141 20.3555L21.7461 16.3828C21.8867 16.2344 21.9844 16.0938 22.0391 15.9609C22.1016 15.8203 22.1328 15.6758 22.1328 15.5273Z" fill="black"/>
</svg>